# MagicaVoxel @ Ephtracy

# group
o 

# material
mtllib ice.mtl
usemtl palette

# normals
vn -1 0 0
vn 1 0 0
vn 0 0 1
vn 0 0 -1
vn 0 -1 0
vn 0 1 0

# texcoords
vt 0.658203 0.5
vt 0.681641 0.5
vt 0.806641 0.5
vt 0.830078 0.5

# verts
v -0.5 0.8 0.6
v -0.5 0.8 0.5
v -0.5 0.8 0.4
v -0.5 0.9 0.7
v -0.5 0.9 0.6
v -0.5 0.9 0.5
v -0.5 1 0.8
v -0.5 1 0.7
v -0.5 1 0.6
v -0.5 1.1 0.8
v -0.5 1.1 0.7
v -0.5 1.1 0.6
v -0.5 1.1 0.5
v -0.5 1.1 0.4
v -0.5 1.2 0.6
v -0.5 1.2 0.5
v -0.4 0.7 0.6
v -0.4 0.7 0.4
v -0.4 0.8 0.7
v -0.4 0.8 0.6
v -0.4 0.8 0.5
v -0.4 0.8 0.4
v -0.4 0.8 0.3
v -0.4 0.8 0.2
v -0.4 0.9 0.8
v -0.4 0.9 0.7
v -0.4 0.9 0.6
v -0.4 1 0.8
v -0.4 1 0.7
v -0.4 1 0.4
v -0.4 1 0.3
v -0.4 1 0.2
v -0.4 1.1 0.8
v -0.4 1.1 0.7
v -0.4 1.1 0.6
v -0.4 1.1 0.4
v -0.4 1.1 0.3
v -0.4 1.2 0.8
v -0.4 1.2 0.7
v -0.4 1.2 0.6
v -0.3 0.7 0.7
v -0.3 0.7 0.6
v -0.3 0.7 0.4
v -0.3 0.7 0.3
v -0.3 0.8 0.8
v -0.3 0.8 0.7
v -0.3 0.8 0.6
v -0.3 0.8 0.4
v -0.3 0.8 0.3
v -0.3 0.9 0.8
v -0.3 0.9 0.7
v -0.3 1.2 0.7
v -0.3 1.2 0.6
v -0.3 1.3 0.7
v -0.3 1.3 0.6
v -0.2 0.8 0.9
v -0.2 0.8 0.8
v -0.2 0.9 1
v -0.2 0.9 0.9
v -0.2 0.9 0.8
v -0.2 1 1
v -0.2 1 0.9
v -0.2 1 0.8
v -0.2 1 0.7
v -0.2 1 0.3
v -0.2 1 0.2
v -0.2 1.1 0.8
v -0.2 1.1 0.7
v -0.2 1.1 0.5
v -0.2 1.1 0.4
v -0.2 1.1 0.3
v -0.2 1.1 0.2
v -0.2 1.2 0.9
v -0.2 1.2 0.8
v -0.2 1.2 0.7
v -0.2 1.2 0.6
v -0.2 1.2 0.5
v -0.2 1.2 0.4
v -0.2 1.2 0.3
v -0.2 1.3 0.6
v -0.2 1.3 0.5
v -0.1 0.9 0.3
v -0.1 0.9 0.2
v -0.1 1 0.3
v -0.1 1 0.2
v -0.4 1 0.8
v -0.4 1 0.7
v -0.4 1.1 0.8
v -0.4 1.1 0.7
v -0.3 1.1 0.8
v -0.3 1.1 0.7
v -0.3 1.2 0.8
v -0.3 1.2 0.7
v -0.2 0.8 0.3
v -0.2 0.8 0.2
v -0.2 0.9 0.3
v -0.2 0.9 0.2
v -0.2 1 0.3
v -0.2 1 0.2
v -0.2 1.2 0.7
v -0.2 1.2 0.6
v -0.2 1.3 0.7
v -0.2 1.3 0.6
v -0.1 0.7 0.7
v -0.1 0.7 0.6
v -0.1 0.7 0.4
v -0.1 0.7 0.3
v -0.1 0.8 0.9
v -0.1 0.8 0.8
v -0.1 0.8 0.7
v -0.1 0.8 0.6
v -0.1 0.8 0.5
v -0.1 0.8 0.4
v -0.1 0.8 0.3
v -0.1 0.9 1
v -0.1 0.9 0.9
v -0.1 0.9 0.8
v -0.1 1 1
v -0.1 1 0.9
v -0.1 1 0.8
v -0.1 1 0.7
v -0.1 1 0.3
v -0.1 1 0.2
v -0.1 1.1 0.8
v -0.1 1.1 0.7
v -0.1 1.1 0.4
v -0.1 1.1 0.3
v -0.1 1.1 0.2
v -0.1 1.2 0.9
v -0.1 1.2 0.8
v -0.1 1.2 0.4
v -0.1 1.2 0.3
v 0 0.8 0.8
v 0 0.8 0.7
v 0 0.8 0.6
v 0 0.8 0.4
v 0 0.8 0.3
v 0 0.9 0.9
v 0 0.9 0.8
v 0 0.9 0.7
v 0 0.9 0.6
v 0 0.9 0.4
v 0 0.9 0.3
v 0 0.9 0.2
v 0 1 0.9
v 0 1 0.8
v 0 1 0.7
v 0 1 0.6
v 0 1 0.5
v 0 1 0.4
v 0 1 0.3
v 0 1 0.2
v 0 1.1 0.8
v 0 1.1 0.7
v 0 1.1 0.6
v 0 1.1 0.5
v 0 1.1 0.4
v 0 1.1 0.3
v 0 1.2 0.8
v 0 1.2 0.6
v 0 1.2 0.5
v 0 1.2 0.4
v 0.1 0.8 0.6
v 0.1 0.8 0.5
v 0.1 0.8 0.4
v 0.1 0.9 0.6
v 0.1 0.9 0.5
v 0.1 0.9 0.4
v 0.1 1 0.6
v 0.1 1 0.5
v 0.1 1.1 0.6
v 0.1 1.1 0.5
v 0.1 1.1 0.4
v 0.1 1.3 0.6
v 0.1 1.3 0.5
v 0.2 0.9 0.7
v 0.2 0.9 0.6
v 0.2 1 0.7
v 0.2 1 0.6
v -0.2 0.9 1
v -0.2 1 1
v -0.1 0.9 1
v -0.1 1 1
v -0.2 0.8 0.9
v -0.2 0.9 0.9
v -0.2 1 0.9
v -0.2 1.2 0.9
v -0.1 0.8 0.9
v -0.1 0.9 0.9
v -0.1 1 0.9
v -0.1 1.2 0.9
v 0 0.9 0.9
v 0 1 0.9
v -0.5 1 0.8
v -0.5 1.1 0.8
v -0.4 0.9 0.8
v -0.4 1 0.8
v -0.4 1.1 0.8
v -0.4 1.2 0.8
v -0.3 0.8 0.8
v -0.3 0.9 0.8
v -0.3 1 0.8
v -0.3 1.1 0.8
v -0.3 1.2 0.8
v -0.2 0.8 0.8
v -0.2 0.9 0.8
v -0.2 1 0.8
v -0.1 0.8 0.8
v -0.1 0.9 0.8
v -0.1 1.1 0.8
v -0.1 1.2 0.8
v 0 0.8 0.8
v 0 0.9 0.8
v 0 1.1 0.8
v 0 1.2 0.8
v -0.5 0.9 0.7
v -0.5 1 0.7
v -0.4 0.8 0.7
v -0.4 0.9 0.7
v -0.4 1 0.7
v -0.4 1.1 0.7
v -0.3 0.7 0.7
v -0.3 0.8 0.7
v -0.3 0.9 0.7
v -0.3 1 0.7
v -0.3 1.1 0.7
v -0.3 1.2 0.7
v -0.3 1.3 0.7
v -0.2 0.8 0.7
v -0.2 1 0.7
v -0.2 1.1 0.7
v -0.2 1.2 0.7
v -0.2 1.3 0.7
v -0.1 0.7 0.7
v -0.1 0.8 0.7
v -0.1 1 0.7
v -0.1 1.1 0.7
v 0 0.9 0.7
v 0 1 0.7
v 0 1.1 0.7
v 0.2 0.9 0.7
v 0.2 1 0.7
v -0.5 0.8 0.6
v -0.5 0.9 0.6
v -0.5 1.1 0.6
v -0.5 1.2 0.6
v -0.4 0.7 0.6
v -0.4 0.8 0.6
v -0.4 0.9 0.6
v -0.4 1.1 0.6
v -0.4 1.2 0.6
v -0.3 0.7 0.6
v -0.3 0.8 0.6
v -0.2 1.2 0.6
v -0.2 1.3 0.6
v -0.1 1.2 0.6
v 0 0.8 0.6
v 0 0.9 0.6
v 0 1.1 0.6
v 0 1.2 0.6
v 0.1 0.8 0.6
v 0.1 0.9 0.6
v 0.1 1.1 0.6
v 0.1 1.3 0.6
v 0 1 0.5
v 0 1.1 0.5
v 0.1 1 0.5
v 0.1 1.1 0.5
v -0.3 1.2 0.6
v -0.3 1.3 0.6
v -0.2 1.2 0.6
v -0.2 1.3 0.6
v 0.1 0.9 0.6
v 0.1 1 0.6
v 0.2 0.9 0.6
v 0.2 1 0.6
v -0.5 1.1 0.5
v -0.5 1.2 0.5
v -0.3 1.1 0.5
v -0.3 1.2 0.5
v -0.2 1.1 0.5
v -0.2 1.2 0.5
v -0.2 1.3 0.5
v -0.1 1.2 0.5
v 0 1.1 0.5
v 0 1.2 0.5
v 0.1 1.1 0.5
v 0.1 1.3 0.5
v -0.5 0.8 0.4
v -0.5 1.1 0.4
v -0.4 0.7 0.4
v -0.4 0.8 0.4
v -0.4 1 0.4
v -0.4 1.1 0.4
v -0.3 0.7 0.4
v -0.3 0.8 0.4
v -0.1 1.1 0.4
v -0.1 1.2 0.4
v 0 0.8 0.4
v 0 0.9 0.4
v 0 1 0.4
v 0 1.1 0.4
v 0 1.2 0.4
v 0.1 0.8 0.4
v 0.1 0.9 0.4
v 0.1 1.1 0.4
v -0.4 1 0.3
v -0.4 1.1 0.3
v -0.3 0.7 0.3
v -0.3 0.8 0.3
v -0.3 1 0.3
v -0.3 1.1 0.3
v -0.2 0.8 0.3
v -0.2 0.9 0.3
v -0.2 1 0.3
v -0.2 1.1 0.3
v -0.2 1.2 0.3
v -0.1 0.7 0.3
v -0.1 0.8 0.3
v -0.1 0.9 0.3
v -0.1 1 0.3
v -0.1 1.1 0.3
v -0.1 1.2 0.3
v 0 0.8 0.3
v 0 0.9 0.3
v 0 1 0.3
v 0 1.1 0.3
v -0.4 0.8 0.2
v -0.4 1 0.2
v -0.3 0.8 0.2
v -0.3 0.9 0.2
v -0.3 1 0.2
v -0.2 0.8 0.2
v -0.2 0.9 0.2
v -0.2 1 0.2
v -0.2 1.1 0.2
v -0.1 0.9 0.2
v -0.1 1 0.2
v -0.1 1.1 0.2
v 0 0.9 0.2
v 0 1 0.2
v -0.3 0.7 0.7
v -0.1 0.7 0.7
v -0.4 0.7 0.6
v -0.3 0.7 0.6
v -0.2 0.7 0.6
v -0.1 0.7 0.6
v -0.3 0.7 0.5
v -0.2 0.7 0.5
v -0.4 0.7 0.4
v -0.3 0.7 0.4
v -0.2 0.7 0.4
v -0.1 0.7 0.4
v -0.3 0.7 0.3
v -0.1 0.7 0.3
v -0.2 0.8 0.9
v -0.1 0.8 0.9
v -0.3 0.8 0.8
v -0.2 0.8 0.8
v -0.1 0.8 0.8
v 0 0.8 0.8
v -0.4 0.8 0.7
v -0.3 0.8 0.7
v -0.2 0.8 0.7
v -0.1 0.8 0.7
v 0 0.8 0.7
v -0.5 0.8 0.6
v -0.4 0.8 0.6
v -0.3 0.8 0.6
v -0.1 0.8 0.6
v 0 0.8 0.6
v 0.1 0.8 0.6
v -0.5 0.8 0.5
v -0.4 0.8 0.5
v -0.1 0.8 0.5
v 0 0.8 0.5
v 0.1 0.8 0.5
v -0.5 0.8 0.4
v -0.4 0.8 0.4
v -0.3 0.8 0.4
v -0.1 0.8 0.4
v 0 0.8 0.4
v 0.1 0.8 0.4
v -0.4 0.8 0.3
v -0.3 0.8 0.3
v -0.2 0.8 0.3
v -0.1 0.8 0.3
v 0 0.8 0.3
v -0.4 0.8 0.2
v -0.3 0.8 0.2
v -0.2 0.8 0.2
v -0.2 0.9 1
v -0.1 0.9 1
v -0.2 0.9 0.9
v -0.1 0.9 0.9
v 0 0.9 0.9
v -0.4 0.9 0.8
v -0.3 0.9 0.8
v -0.1 0.9 0.8
v 0 0.9 0.8
v -0.5 0.9 0.7
v -0.4 0.9 0.7
v -0.3 0.9 0.7
v 0 0.9 0.7
v 0.2 0.9 0.7
v -0.5 0.9 0.6
v -0.4 0.9 0.6
v 0 0.9 0.6
v 0.1 0.9 0.6
v 0.2 0.9 0.6
v -0.1 0.9 0.3
v 0 0.9 0.3
v -0.1 0.9 0.2
v 0 0.9 0.2
v -0.5 1 0.8
v -0.4 1 0.8
v -0.5 1 0.7
v -0.4 1 0.7
v -0.2 1 0.3
v -0.1 1 0.3
v -0.2 1 0.2
v -0.1 1 0.2
v -0.4 1.1 0.8
v -0.3 1.1 0.8
v -0.1 1.1 0.8
v 0 1.1 0.8
v -0.4 1.1 0.7
v -0.3 1.1 0.7
v -0.1 1.1 0.7
v 0 1.1 0.7
v 0 1.1 0.6
v 0.1 1.1 0.6
v 0 1.1 0.5
v 0.1 1.1 0.5
v -0.2 1 1
v -0.1 1 1
v -0.2 1 0.9
v -0.1 1 0.9
v 0 1 0.9
v -0.4 1 0.8
v -0.3 1 0.8
v -0.2 1 0.8
v -0.1 1 0.8
v 0 1 0.8
v -0.4 1 0.7
v -0.3 1 0.7
v -0.2 1 0.7
v -0.1 1 0.7
v 0 1 0.7
v 0.2 1 0.7
v 0 1 0.6
v 0.1 1 0.6
v 0.2 1 0.6
v 0 1 0.5
v 0.1 1 0.5
v -0.4 1 0.3
v -0.3 1 0.3
v -0.2 1 0.3
v -0.1 1 0.3
v 0 1 0.3
v -0.4 1 0.2
v -0.3 1 0.2
v -0.2 1 0.2
v -0.1 1 0.2
v 0 1 0.2
v -0.5 1.1 0.8
v -0.4 1.1 0.8
v -0.5 1.1 0.7
v -0.4 1.1 0.7
v -0.5 1.1 0.6
v -0.4 1.1 0.6
v -0.5 1.1 0.5
v -0.3 1.1 0.5
v -0.2 1.1 0.5
v 0 1.1 0.5
v 0.1 1.1 0.5
v -0.5 1.1 0.4
v -0.4 1.1 0.4
v -0.3 1.1 0.4
v -0.2 1.1 0.4
v -0.1 1.1 0.4
v 0 1.1 0.4
v 0.1 1.1 0.4
v -0.4 1.1 0.3
v -0.3 1.1 0.3
v -0.2 1.1 0.3
v -0.1 1.1 0.3
v 0 1.1 0.3
v -0.2 1.1 0.2
v -0.1 1.1 0.2
v -0.2 1.2 0.9
v -0.1 1.2 0.9
v -0.4 1.2 0.8
v -0.3 1.2 0.8
v -0.2 1.2 0.8
v -0.1 1.2 0.8
v 0 1.2 0.8
v -0.4 1.2 0.7
v -0.3 1.2 0.7
v -0.2 1.2 0.7
v -0.5 1.2 0.6
v -0.4 1.2 0.6
v -0.3 1.2 0.6
v -0.2 1.2 0.6
v -0.1 1.2 0.6
v 0 1.2 0.6
v -0.5 1.2 0.5
v -0.3 1.2 0.5
v -0.2 1.2 0.5
v -0.1 1.2 0.5
v 0 1.2 0.5
v -0.2 1.2 0.4
v -0.1 1.2 0.4
v 0 1.2 0.4
v -0.2 1.2 0.3
v -0.1 1.2 0.3
v -0.3 1.3 0.7
v -0.2 1.3 0.7
v -0.3 1.3 0.6
v -0.2 1.3 0.6
v 0.1 1.3 0.6
v -0.2 1.3 0.5
v 0.1 1.3 0.5

# faces
f 5/4/1 2/4/1 1/4/1
f 6/3/1 3/3/1 2/3/1
f 6/4/1 2/4/1 5/4/1
f 8/2/1 5/2/1 4/2/1
f 8/2/1 6/2/1 5/2/1
f 9/2/1 6/2/1 8/2/1
f 10/3/1 8/3/1 7/3/1
f 11/4/1 9/4/1 8/4/1
f 11/3/1 8/3/1 10/3/1
f 12/2/1 6/2/1 9/2/1
f 12/4/1 9/4/1 11/4/1
f 13/3/1 3/3/1 6/3/1
f 13/2/1 6/2/1 12/2/1
f 14/3/1 3/3/1 13/3/1
f 15/4/1 13/4/1 12/4/1
f 16/4/1 13/4/1 15/4/1
f 20/3/1 18/3/1 17/3/1
f 21/3/1 18/3/1 20/3/1
f 22/3/1 18/3/1 21/3/1
f 26/3/1 20/3/1 19/3/1
f 27/3/1 20/3/1 26/3/1
f 28/2/1 26/2/1 25/2/1
f 29/2/1 26/2/1 28/2/1
f 30/4/1 23/4/1 22/4/1
f 31/3/1 24/3/1 23/3/1
f 31/4/1 23/4/1 30/4/1
f 32/3/1 24/3/1 31/3/1
f 36/3/1 31/3/1 30/3/1
f 37/3/1 31/3/1 36/3/1
f 38/3/1 34/3/1 33/3/1
f 39/4/1 35/4/1 34/4/1
f 39/3/1 34/3/1 38/3/1
f 40/4/1 35/4/1 39/4/1
f 46/3/1 42/3/1 41/3/1
f 47/3/1 42/3/1 46/3/1
f 48/4/1 44/4/1 43/4/1
f 49/4/1 44/4/1 48/4/1
f 50/4/1 46/4/1 45/4/1
f 51/4/1 46/4/1 50/4/1
f 54/3/1 53/3/1 52/3/1
f 55/3/1 53/3/1 54/3/1
f 59/4/1 57/4/1 56/4/1
f 60/4/1 57/4/1 59/4/1
f 61/4/1 59/4/1 58/4/1
f 61/4/1 60/4/1 59/4/1
f 62/4/1 60/4/1 61/4/1
f 63/4/1 60/4/1 62/4/1
f 67/3/1 63/3/1 62/3/1
f 67/1/1 64/1/1 63/1/1
f 68/1/1 64/1/1 67/1/1
f 71/4/1 66/4/1 65/4/1
f 72/4/1 66/4/1 71/4/1
f 73/3/1 67/3/1 62/3/1
f 74/2/1 68/2/1 67/2/1
f 74/3/1 67/3/1 73/3/1
f 75/2/1 68/2/1 74/2/1
f 77/1/1 70/1/1 69/1/1
f 78/4/1 71/4/1 70/4/1
f 78/1/1 70/1/1 77/1/1
f 79/4/1 71/4/1 78/4/1
f 80/4/1 77/4/1 76/4/1
f 81/4/1 77/4/1 80/4/1
f 84/4/1 83/4/1 82/4/1
f 85/4/1 83/4/1 84/4/1
f 86/3/2 87/3/2 88/3/2
f 88/3/2 87/3/2 89/3/2
f 90/3/2 91/3/2 92/3/2
f 92/3/2 91/3/2 93/3/2
f 94/4/2 95/4/2 96/4/2
f 96/4/2 95/4/2 97/4/2
f 96/1/2 97/1/2 98/1/2
f 98/1/2 97/1/2 99/1/2
f 100/3/2 101/3/2 102/3/2
f 102/3/2 101/3/2 103/3/2
f 104/3/2 105/3/2 110/3/2
f 105/2/2 106/2/2 111/2/2
f 110/3/2 105/3/2 111/3/2
f 111/2/2 106/2/2 112/2/2
f 106/4/2 107/4/2 113/4/2
f 112/2/2 106/2/2 113/2/2
f 113/4/2 107/4/2 114/4/2
f 108/4/2 109/4/2 116/4/2
f 116/4/2 109/4/2 117/4/2
f 115/4/2 116/4/2 118/4/2
f 118/4/2 116/4/2 119/4/2
f 120/1/2 121/1/2 124/1/2
f 119/3/2 120/3/2 124/3/2
f 124/1/2 121/1/2 125/1/2
f 122/4/2 123/4/2 127/4/2
f 127/4/2 123/4/2 128/4/2
f 119/3/2 124/3/2 129/3/2
f 129/3/2 124/3/2 130/3/2
f 126/4/2 127/4/2 131/4/2
f 131/4/2 127/4/2 132/4/2
f 133/2/2 134/2/2 139/2/2
f 134/1/2 135/1/2 140/1/2
f 139/2/2 134/2/2 140/2/2
f 140/1/2 135/1/2 141/1/2
f 136/4/2 137/4/2 142/4/2
f 142/4/2 137/4/2 143/4/2
f 138/4/2 139/4/2 145/4/2
f 139/2/2 140/2/2 146/2/2
f 145/4/2 139/4/2 146/4/2
f 146/2/2 140/2/2 147/2/2
f 142/2/2 143/2/2 150/2/2
f 143/4/2 144/4/2 151/4/2
f 150/2/2 143/2/2 151/2/2
f 151/4/2 144/4/2 152/4/2
f 147/2/2 148/2/2 154/2/2
f 148/1/2 149/1/2 155/1/2
f 154/2/2 148/2/2 155/2/2
f 155/1/2 149/1/2 156/1/2
f 150/4/2 151/4/2 157/4/2
f 157/4/2 151/4/2 158/4/2
f 153/3/2 154/3/2 159/3/2
f 154/3/2 155/3/2 159/3/2
f 159/3/2 155/3/2 160/3/2
f 156/4/2 157/4/2 161/4/2
f 161/4/2 157/4/2 162/4/2
f 163/2/2 164/2/2 166/2/2
f 164/4/2 165/4/2 167/4/2
f 166/2/2 164/2/2 167/2/2
f 167/4/2 165/4/2 168/4/2
f 166/2/2 167/2/2 169/2/2
f 167/1/2 168/1/2 170/1/2
f 169/2/2 167/2/2 170/2/2
f 170/1/2 168/1/2 172/1/2
f 172/1/2 168/1/2 173/1/2
f 171/4/2 172/4/2 174/4/2
f 174/4/2 172/4/2 175/4/2
f 176/4/2 177/4/2 178/4/2
f 178/4/2 177/4/2 179/4/2
f 182/4/3 181/4/3 180/4/3
f 183/4/3 181/4/3 182/4/3
f 188/4/3 185/4/3 184/4/3
f 189/4/3 185/4/3 188/4/3
f 190/3/3 187/3/3 186/3/3
f 191/3/3 187/3/3 190/3/3
f 192/4/3 190/4/3 189/4/3
f 193/4/3 190/4/3 192/4/3
f 197/3/3 195/3/3 194/3/3
f 198/3/3 195/3/3 197/3/3
f 201/2/3 197/2/3 196/2/3
f 202/2/3 197/2/3 201/2/3
f 203/3/3 199/3/3 198/3/3
f 204/3/3 199/3/3 203/3/3
f 205/4/3 201/4/3 200/4/3
f 206/1/3 202/1/3 201/1/3
f 206/4/3 201/4/3 205/4/3
f 207/1/3 202/1/3 206/1/3
f 212/2/3 209/2/3 208/2/3
f 213/2/3 209/2/3 212/2/3
f 214/3/3 211/3/3 210/3/3
f 215/3/3 211/3/3 214/3/3
f 219/2/3 217/2/3 216/2/3
f 220/2/3 217/2/3 219/2/3
f 223/3/3 219/3/3 218/3/3
f 224/3/3 219/3/3 223/3/3
f 225/2/3 221/2/3 220/2/3
f 226/2/3 221/2/3 225/2/3
f 229/3/3 223/3/3 222/3/3
f 230/1/3 226/1/3 225/1/3
f 231/2/3 227/2/3 226/2/3
f 231/1/3 226/1/3 230/1/3
f 232/3/3 228/3/3 227/3/3
f 232/2/3 227/2/3 231/2/3
f 233/3/3 228/3/3 232/3/3
f 234/3/3 229/3/3 222/3/3
f 235/3/3 229/3/3 234/3/3
f 239/2/3 237/2/3 236/2/3
f 240/2/3 237/2/3 239/2/3
f 241/4/3 239/4/3 238/4/3
f 242/4/3 239/4/3 241/4/3
f 248/4/3 244/4/3 243/4/3
f 249/4/3 244/4/3 248/4/3
f 250/4/3 246/4/3 245/4/3
f 251/4/3 246/4/3 250/4/3
f 252/3/3 248/3/3 247/3/3
f 253/3/3 248/3/3 252/3/3
f 256/4/3 255/4/3 254/4/3
f 260/4/3 255/4/3 256/4/3
f 261/2/3 258/2/3 257/2/3
f 262/2/3 258/2/3 261/2/3
f 263/4/3 260/4/3 259/4/3
f 264/4/3 255/4/3 260/4/3
f 264/4/3 260/4/3 263/4/3
f 267/1/3 266/1/3 265/1/3
f 268/1/3 266/1/3 267/1/3
f 269/3/4 270/3/4 271/3/4
f 271/3/4 270/3/4 272/3/4
f 273/4/4 274/4/4 275/4/4
f 275/4/4 274/4/4 276/4/4
f 277/4/4 278/4/4 279/4/4
f 279/4/4 278/4/4 280/4/4
f 279/1/4 280/1/4 281/1/4
f 281/1/4 280/1/4 282/1/4
f 282/4/4 283/4/4 284/4/4
f 284/4/4 283/4/4 286/4/4
f 285/4/4 286/4/4 287/4/4
f 286/4/4 283/4/4 288/4/4
f 287/4/4 286/4/4 288/4/4
f 289/3/4 290/3/4 292/3/4
f 292/3/4 290/3/4 293/3/4
f 293/3/4 290/3/4 294/3/4
f 291/3/4 292/3/4 295/3/4
f 295/3/4 292/3/4 296/3/4
f 297/4/4 298/4/4 302/4/4
f 302/4/4 298/4/4 303/4/4
f 299/4/4 300/4/4 304/4/4
f 300/1/4 301/1/4 305/1/4
f 304/4/4 300/4/4 305/4/4
f 301/1/4 302/1/4 305/1/4
f 305/1/4 302/1/4 306/1/4
f 307/3/4 308/3/4 311/3/4
f 311/3/4 308/3/4 312/3/4
f 309/4/4 310/4/4 313/4/4
f 311/2/4 312/2/4 315/2/4
f 315/2/4 312/2/4 316/2/4
f 309/4/4 313/4/4 318/4/4
f 313/1/4 314/1/4 319/1/4
f 318/4/4 313/4/4 319/4/4
f 314/1/4 315/1/4 319/1/4
f 319/1/4 315/1/4 320/1/4
f 320/1/4 315/1/4 321/1/4
f 316/4/4 317/4/4 322/4/4
f 322/4/4 317/4/4 323/4/4
f 319/4/4 320/4/4 324/4/4
f 324/4/4 320/4/4 325/4/4
f 321/4/4 322/4/4 326/4/4
f 326/4/4 322/4/4 327/4/4
f 328/3/4 329/3/4 330/3/4
f 330/3/4 329/3/4 331/3/4
f 331/3/4 329/3/4 332/3/4
f 330/4/4 331/4/4 333/4/4
f 331/1/4 332/1/4 334/1/4
f 333/4/4 331/4/4 334/4/4
f 334/1/4 332/1/4 335/1/4
f 335/4/4 336/4/4 338/4/4
f 338/4/4 336/4/4 339/4/4
f 337/4/4 338/4/4 340/4/4
f 340/4/4 338/4/4 341/4/4
f 345/3/5 343/3/5 342/3/5
f 346/3/5 343/3/5 345/3/5
f 347/3/5 343/3/5 346/3/5
f 348/3/5 345/3/5 344/3/5
f 348/3/5 346/3/5 345/3/5
f 349/2/5 347/2/5 346/2/5
f 349/3/5 346/3/5 348/3/5
f 350/3/5 348/3/5 344/3/5
f 351/4/5 349/4/5 348/4/5
f 351/3/5 348/3/5 350/3/5
f 352/2/5 347/2/5 349/2/5
f 352/4/5 349/4/5 351/4/5
f 353/2/5 347/2/5 352/2/5
f 354/4/5 352/4/5 351/4/5
f 354/4/5 353/4/5 352/4/5
f 355/4/5 353/4/5 354/4/5
f 359/4/5 357/4/5 356/4/5
f 360/4/5 357/4/5 359/4/5
f 363/4/5 359/4/5 358/4/5
f 364/2/5 361/2/5 360/2/5
f 364/2/5 360/2/5 359/2/5
f 364/4/5 359/4/5 363/4/5
f 365/2/5 361/2/5 364/2/5
f 366/2/5 361/2/5 365/2/5
f 368/3/5 363/3/5 362/3/5
f 369/3/5 363/3/5 368/3/5
f 370/1/5 366/1/5 365/1/5
f 371/1/5 366/1/5 370/1/5
f 373/4/5 368/4/5 367/4/5
f 374/4/5 368/4/5 373/4/5
f 375/1/5 371/1/5 370/1/5
f 376/2/5 372/2/5 371/2/5
f 376/1/5 371/1/5 375/1/5
f 377/2/5 372/2/5 376/2/5
f 378/3/5 374/3/5 373/3/5
f 379/3/5 374/3/5 378/3/5
f 381/4/5 376/4/5 375/4/5
f 381/4/5 377/4/5 376/4/5
f 382/4/5 377/4/5 381/4/5
f 383/4/5 377/4/5 382/4/5
f 384/4/5 380/4/5 379/4/5
f 385/4/5 380/4/5 384/4/5
f 387/4/5 382/4/5 381/4/5
f 388/4/5 382/4/5 387/4/5
f 389/3/5 385/3/5 384/3/5
f 390/4/5 386/4/5 385/4/5
f 390/3/5 385/3/5 389/3/5
f 391/4/5 386/4/5 390/4/5
f 394/4/5 393/4/5 392/4/5
f 395/4/5 393/4/5 394/4/5
f 399/4/5 396/4/5 395/4/5
f 400/4/5 396/4/5 399/4/5
f 402/2/5 398/2/5 397/2/5
f 403/2/5 398/2/5 402/2/5
f 406/2/5 402/2/5 401/2/5
f 407/2/5 402/2/5 406/2/5
f 408/4/5 405/4/5 404/4/5
f 409/4/5 405/4/5 408/4/5
f 410/4/5 405/4/5 409/4/5
f 413/4/5 412/4/5 411/4/5
f 414/4/5 412/4/5 413/4/5
f 417/3/5 416/3/5 415/3/5
f 418/3/5 416/3/5 417/3/5
f 421/4/5 420/4/5 419/4/5
f 422/4/5 420/4/5 421/4/5
f 427/3/5 424/3/5 423/3/5
f 428/3/5 424/3/5 427/3/5
f 429/3/5 426/3/5 425/3/5
f 430/3/5 426/3/5 429/3/5
f 433/4/5 432/4/5 431/4/5
f 434/4/5 432/4/5 433/4/5
f 435/4/6 436/4/6 437/4/6
f 437/4/6 436/4/6 438/4/6
f 438/4/6 439/4/6 443/4/6
f 443/4/6 439/4/6 444/4/6
f 440/2/6 441/2/6 445/2/6
f 441/1/6 442/1/6 446/1/6
f 445/2/6 441/2/6 446/2/6
f 446/1/6 442/1/6 447/1/6
f 443/2/6 444/2/6 448/2/6
f 448/2/6 444/2/6 449/2/6
f 449/4/6 450/4/6 451/4/6
f 451/4/6 450/4/6 452/4/6
f 452/4/6 450/4/6 453/4/6
f 451/2/6 452/2/6 454/2/6
f 454/2/6 452/2/6 455/2/6
f 456/3/6 457/3/6 461/3/6
f 457/1/6 458/1/6 462/1/6
f 461/3/6 457/3/6 462/3/6
f 462/1/6 458/1/6 463/1/6
f 459/4/6 460/4/6 464/4/6
f 464/4/6 460/4/6 465/4/6
f 466/3/6 467/3/6 468/3/6
f 468/3/6 467/3/6 469/3/6
f 468/4/6 469/4/6 470/4/6
f 470/4/6 469/4/6 471/4/6
f 472/3/6 473/3/6 477/3/6
f 477/3/6 473/3/6 478/3/6
f 473/1/6 474/1/6 479/1/6
f 478/3/6 473/3/6 479/3/6
f 479/1/6 474/1/6 480/1/6
f 475/1/6 476/1/6 482/1/6
f 482/1/6 476/1/6 483/1/6
f 478/3/6 479/3/6 484/3/6
f 479/2/6 480/2/6 485/2/6
f 484/3/6 479/3/6 485/3/6
f 485/2/6 480/2/6 486/2/6
f 481/4/6 482/4/6 487/4/6
f 487/4/6 482/4/6 488/4/6
f 486/4/6 487/4/6 489/4/6
f 489/4/6 487/4/6 490/4/6
f 491/3/6 492/3/6 495/3/6
f 495/3/6 492/3/6 496/3/6
f 493/3/6 494/3/6 498/3/6
f 498/3/6 494/3/6 499/3/6
f 495/2/6 496/2/6 500/2/6
f 498/4/6 499/4/6 502/4/6
f 502/4/6 499/4/6 503/4/6
f 500/2/6 496/2/6 504/2/6
f 496/3/6 497/3/6 505/3/6
f 504/2/6 496/2/6 505/2/6
f 505/3/6 497/3/6 506/3/6
f 502/4/6 503/4/6 507/4/6
f 501/4/6 502/4/6 507/4/6
f 503/1/6 504/1/6 508/1/6
f 507/4/6 503/4/6 508/4/6
f 508/1/6 504/1/6 509/1/6
f 509/1/6 510/1/6 512/1/6
f 510/4/6 511/4/6 513/4/6
f 512/1/6 510/1/6 513/1/6
f 513/4/6 511/4/6 514/4/6
f 512/4/6 513/4/6 515/4/6
f 515/4/6 513/4/6 516/4/6
f 517/3/6 518/3/6 519/3/6
f 519/3/6 518/3/6 520/3/6
f 520/4/6 521/4/6 522/4/6
f 522/4/6 521/4/6 523/4/6
