# MagicaVoxel @ Ephtracy

# group
o 

# material
mtllib RightGunArm.mtl
usemtl palette

# normals
vn -1 0 0
vn 1 0 0
vn 0 0 1
vn 0 0 -1
vn 0 -1 0
vn 0 1 0

# texcoords
vt 0.0292969 0.5
vt 0.990234 0.5

# verts
v -1.1 0.4 1.2
v -1.1 0.4 1
v -1.1 0.6 1.2
v -1.1 0.6 1
v -1 0.3 1.3
v -1 0.3 1.1
v -1 0.4 1.2
v -1 0.4 1.1
v -1 0.4 1
v -1 0.4 0.3
v -1 0.6 1.4
v -1 0.6 1.3
v -1 0.6 1.2
v -1 0.6 1.1
v -1 0.6 1
v -1 0.6 0.3
v -1 0.7 1.9
v -1 0.7 1.4
v -1 0.9 1.9
v -1 0.9 1.1
v -0.8 0.3 1.3
v -0.8 0.3 1.1
v -0.8 0.4 1.2
v -0.8 0.4 1.1
v -0.8 0.4 1
v -0.8 0.4 0.5
v -0.8 0.6 1.4
v -0.8 0.6 1.3
v -0.8 0.6 1.2
v -0.8 0.6 1.1
v -0.8 0.6 1
v -0.8 0.6 0.5
v -0.8 0.7 1.9
v -0.8 0.7 1.4
v -0.8 0.9 1.9
v -0.8 0.9 1.1
v -0.7 0.4 1.2
v -0.7 0.4 1
v -0.7 0.6 1.2
v -0.7 0.6 1
v 0.2 0.4 0.5
v 0.2 0.4 0.3
v 0.2 0.6 0.5
v 0.2 0.6 0.3
v -1 0.7 1.9
v -1 0.9 1.9
v -0.8 0.7 1.9
v -0.8 0.9 1.9
v -1 0.6 1.4
v -1 0.7 1.4
v -0.8 0.6 1.4
v -0.8 0.7 1.4
v -1 0.3 1.3
v -1 0.6 1.3
v -0.8 0.3 1.3
v -0.8 0.6 1.3
v -1.1 0.4 1.2
v -1.1 0.6 1.2
v -1 0.4 1.2
v -1 0.6 1.2
v -0.8 0.4 1.2
v -0.8 0.6 1.2
v -0.7 0.4 1.2
v -0.7 0.6 1.2
v -0.8 0.4 0.5
v -0.8 0.6 0.5
v 0.2 0.4 0.5
v 0.2 0.6 0.5
v -1 0.3 1.1
v -1 0.4 1.1
v -1 0.6 1.1
v -1 0.9 1.1
v -0.8 0.3 1.1
v -0.8 0.4 1.1
v -0.8 0.6 1.1
v -0.8 0.9 1.1
v -1.1 0.4 1
v -1.1 0.6 1
v -1 0.4 1
v -1 0.6 1
v -0.8 0.4 1
v -0.8 0.6 1
v -0.7 0.4 1
v -0.7 0.6 1
v -1 0.4 0.3
v -1 0.6 0.3
v 0.2 0.4 0.3
v 0.2 0.6 0.3
v -1 0.3 1.3
v -0.8 0.3 1.3
v -1 0.3 1.1
v -0.8 0.3 1.1
v -1.1 0.4 1.2
v -1 0.4 1.2
v -0.8 0.4 1.2
v -0.7 0.4 1.2
v -1 0.4 1.1
v -0.8 0.4 1.1
v -1.1 0.4 1
v -1 0.4 1
v -0.8 0.4 1
v -0.7 0.4 1
v -0.8 0.4 0.5
v 0.2 0.4 0.5
v -1 0.4 0.3
v 0.2 0.4 0.3
v -1 0.6 1.4
v -0.8 0.6 1.4
v -1 0.6 1.3
v -0.8 0.6 1.3
v -1 0.7 1.9
v -0.8 0.7 1.9
v -1 0.7 1.4
v -0.8 0.7 1.4
v -1.1 0.6 1.2
v -1 0.6 1.2
v -0.8 0.6 1.2
v -0.7 0.6 1.2
v -1 0.6 1.1
v -0.8 0.6 1.1
v -1.1 0.6 1
v -1 0.6 1
v -0.8 0.6 1
v -0.7 0.6 1
v -0.8 0.6 0.5
v 0.2 0.6 0.5
v -1 0.6 0.3
v 0.2 0.6 0.3
v -1 0.9 1.9
v -0.8 0.9 1.9
v -1 0.9 1.1
v -0.8 0.9 1.1

# faces
f 3/1/1 2/1/1 1/1/1
f 4/1/1 2/1/1 3/1/1
f 7/2/1 6/2/1 5/2/1
f 8/2/1 6/2/1 7/2/1
f 12/2/1 7/2/1 5/2/1
f 13/2/1 7/2/1 12/2/1
f 15/1/1 10/1/1 9/1/1
f 16/1/1 10/1/1 15/1/1
f 18/2/1 14/2/1 13/2/1
f 18/2/1 12/2/1 11/2/1
f 18/2/1 13/2/1 12/2/1
f 19/2/1 18/2/1 17/2/1
f 20/2/1 14/2/1 18/2/1
f 20/2/1 18/2/1 19/2/1
f 21/2/2 22/2/2 23/2/2
f 23/2/2 22/2/2 24/2/2
f 21/2/2 23/2/2 28/2/2
f 28/2/2 23/2/2 29/2/2
f 25/1/2 26/1/2 31/1/2
f 31/1/2 26/1/2 32/1/2
f 29/2/2 30/2/2 34/2/2
f 27/2/2 28/2/2 34/2/2
f 28/2/2 29/2/2 34/2/2
f 33/2/2 34/2/2 35/2/2
f 34/2/2 30/2/2 36/2/2
f 35/2/2 34/2/2 36/2/2
f 37/1/2 38/1/2 39/1/2
f 39/1/2 38/1/2 40/1/2
f 41/1/2 42/1/2 43/1/2
f 43/1/2 42/1/2 44/1/2
f 47/2/3 46/2/3 45/2/3
f 48/2/3 46/2/3 47/2/3
f 51/2/3 50/2/3 49/2/3
f 52/2/3 50/2/3 51/2/3
f 55/2/3 54/2/3 53/2/3
f 56/2/3 54/2/3 55/2/3
f 59/1/3 58/1/3 57/1/3
f 60/1/3 58/1/3 59/1/3
f 63/1/3 62/1/3 61/1/3
f 64/1/3 62/1/3 63/1/3
f 67/1/3 66/1/3 65/1/3
f 68/1/3 66/1/3 67/1/3
f 69/2/4 70/2/4 73/2/4
f 73/2/4 70/2/4 74/2/4
f 71/2/4 72/2/4 75/2/4
f 75/2/4 72/2/4 76/2/4
f 77/1/4 78/1/4 79/1/4
f 79/1/4 78/1/4 80/1/4
f 81/1/4 82/1/4 83/1/4
f 83/1/4 82/1/4 84/1/4
f 85/1/4 86/1/4 87/1/4
f 87/1/4 86/1/4 88/1/4
f 91/2/5 90/2/5 89/2/5
f 92/2/5 90/2/5 91/2/5
f 97/1/5 94/1/5 93/1/5
f 98/1/5 96/1/5 95/1/5
f 99/1/5 97/1/5 93/1/5
f 99/1/5 98/1/5 97/1/5
f 100/1/5 98/1/5 99/1/5
f 101/1/5 96/1/5 98/1/5
f 101/1/5 98/1/5 100/1/5
f 102/1/5 96/1/5 101/1/5
f 103/1/5 101/1/5 100/1/5
f 105/1/5 103/1/5 100/1/5
f 105/1/5 104/1/5 103/1/5
f 106/1/5 104/1/5 105/1/5
f 109/2/5 108/2/5 107/2/5
f 110/2/5 108/2/5 109/2/5
f 113/2/5 112/2/5 111/2/5
f 114/2/5 112/2/5 113/2/5
f 115/1/6 116/1/6 119/1/6
f 117/1/6 118/1/6 120/1/6
f 115/1/6 119/1/6 121/1/6
f 119/1/6 120/1/6 121/1/6
f 121/1/6 120/1/6 122/1/6
f 120/1/6 118/1/6 123/1/6
f 122/1/6 120/1/6 123/1/6
f 123/1/6 118/1/6 124/1/6
f 122/1/6 123/1/6 125/1/6
f 122/1/6 125/1/6 127/1/6
f 125/1/6 126/1/6 127/1/6
f 127/1/6 126/1/6 128/1/6
f 129/2/6 130/2/6 131/2/6
f 131/2/6 130/2/6 132/2/6
