# MagicaVoxel @ Ephtracy

# group
o 

# material
mtllib RightLeg.mtl
usemtl palette

# normals
vn -1 0 0
vn 1 0 0
vn 0 0 1
vn 0 0 -1
vn 0 -1 0
vn 0 1 0

# texcoords
vt 0.806641 0.5
vt 0.994141 0.5

# verts
v -0.4 0 0.8
v -0.4 0 0.3
v -0.4 0.2 0.8
v -0.4 0.2 0.5
v -0.4 0.2 0.3
v -0.4 1 0.5
v -0.4 1 0.3
v -0.2 0 0.8
v -0.2 0 0.3
v -0.2 0.2 0.8
v -0.2 0.2 0.5
v -0.2 0.2 0.3
v -0.2 1 0.5
v -0.2 1 0.3
v -0.4 0 0.8
v -0.4 0.2 0.8
v -0.2 0 0.8
v -0.2 0.2 0.8
v -0.4 0.2 0.5
v -0.4 1 0.5
v -0.2 0.2 0.5
v -0.2 1 0.5
v -0.4 0 0.3
v -0.4 0.2 0.3
v -0.4 1 0.3
v -0.2 0 0.3
v -0.2 0.2 0.3
v -0.2 1 0.3
v -0.4 0 0.8
v -0.2 0 0.8
v -0.4 0 0.3
v -0.2 0 0.3
v -0.4 0.2 0.8
v -0.2 0.2 0.8
v -0.4 0.2 0.5
v -0.2 0.2 0.5
v -0.4 1 0.5
v -0.2 1 0.5
v -0.4 1 0.3
v -0.2 1 0.3

# faces
f 3/2/1 2/2/1 1/2/1
f 4/2/1 2/2/1 3/2/1
f 5/2/1 2/2/1 4/2/1
f 6/1/1 5/1/1 4/1/1
f 7/1/1 5/1/1 6/1/1
f 8/2/2 9/2/2 10/2/2
f 10/2/2 9/2/2 11/2/2
f 11/2/2 9/2/2 12/2/2
f 11/1/2 12/1/2 13/1/2
f 13/1/2 12/1/2 14/1/2
f 17/2/3 16/2/3 15/2/3
f 18/2/3 16/2/3 17/2/3
f 21/1/3 20/1/3 19/1/3
f 22/1/3 20/1/3 21/1/3
f 23/2/4 24/2/4 26/2/4
f 24/1/4 25/1/4 27/1/4
f 26/2/4 24/2/4 27/2/4
f 27/1/4 25/1/4 28/1/4
f 31/2/5 30/2/5 29/2/5
f 32/2/5 30/2/5 31/2/5
f 33/2/6 34/2/6 35/2/6
f 35/2/6 34/2/6 36/2/6
f 37/1/6 38/1/6 39/1/6
f 39/1/6 38/1/6 40/1/6
